<svg version="1.1" id="Layer_1" xmlns="http://www.w3.org/2000/svg" xmlns:xlink="http://www.w3.org/1999/xlink" x="0px" y="0px"
	 width="100%" viewBox="0 0 318 334" enable-background="new 0 0 318 334" xml:space="preserve">
<path fill="#DAA507" opacity="1.000000" stroke="none" 
	d="
M221.000000,1.000000 
	C221.444336,1.000000 221.888672,1.000000 222.324066,1.279531 
	C225.793472,3.796439 229.478516,5.780421 232.663132,8.377908 
	C234.259277,9.679784 234.823502,12.181579 236.063812,13.997675 
	C239.287476,18.717850 242.778671,23.260834 245.879776,28.057701 
	C249.324051,33.385365 252.690552,38.790363 255.667023,44.387123 
	C260.211151,52.931648 261.243317,62.917782 251.656830,68.869843 
	C242.066635,74.824219 232.561935,80.916817 223.045731,86.989517 
	C220.011734,88.925644 217.060776,90.991890 214.071823,92.998596 
	C215.461227,93.937485 216.347031,94.141159 217.095581,93.906708 
	C227.167099,90.752304 237.309631,87.791557 247.253952,84.272484 
	C259.863434,79.810287 269.640991,85.819328 272.966644,98.280312 
	C275.692200,108.492599 278.472473,118.693344 281.457520,128.831772 
	C282.634735,132.830048 284.696747,136.566574 285.891357,140.561218 
	C288.101624,147.952011 289.712250,155.526566 292.036896,162.877777 
	C296.170013,175.947983 300.743530,188.878296 304.956482,201.924057 
	C308.949799,214.289856 312.921661,226.670227 316.490234,239.162079 
	C318.077881,244.719757 318.283356,250.416290 314.214386,255.501999 
	C310.020386,260.744049 304.219635,262.606750 298.138611,264.474335 
	C270.826935,272.862183 243.598755,281.521393 216.316925,290.007019 
	C186.402557,299.311493 156.488342,308.618134 126.523590,317.758392 
	C108.874062,323.142090 91.124680,328.198273 73.439690,333.467133 
	C73.165253,333.548920 73.140999,334.470398 73.000000,335.000000 
	C72.555664,335.000000 72.111328,335.000000 71.672432,334.710083 
	C71.200439,333.980591 70.756516,333.202881 70.240593,333.151733 
	C61.192791,332.255219 57.386074,325.823761 55.063290,318.306122 
	C48.784206,297.983978 42.914284,277.535339 36.620941,257.217773 
	C30.915474,238.798111 24.735647,220.525574 19.007902,202.112595 
	C14.089475,186.301346 9.907675,170.250732 4.620973,154.568619 
	C1.990412,146.765503 2.356293,140.170456 8.697248,135.023468 
	C14.388046,130.404221 20.778387,126.632843 26.941986,122.612946 
	C39.150074,114.650795 51.374123,106.711655 63.666103,98.879982 
	C78.975204,89.125992 94.385078,79.530266 109.703049,69.790092 
	C120.963020,62.630260 132.138077,55.337002 143.363876,48.123276 
	C158.449310,38.429329 173.467758,28.627748 188.669144,19.118879 
	C197.950272,13.313288 207.525146,7.977616 216.935913,2.376851 
	C217.153381,2.247420 216.987213,1.473371 217.000000,1.000000 
	C217.750000,1.000000 218.500000,1.000000 219.289307,1.265293 
	C219.887436,1.797913 220.446259,2.065241 221.005066,2.332566 
	C221.003387,1.888376 221.001694,1.444188 221.000000,1.000000 
M266.047455,257.474579 
	C278.052460,253.782440 290.057465,250.090317 301.974060,246.425400 
	C291.491821,212.657562 281.335938,179.940918 271.180847,147.226929 
	C194.275299,171.080521 117.852455,194.784393 40.985683,218.625961 
	C51.249905,252.048218 61.347179,284.926849 71.449036,317.820404 
	C89.781937,312.258820 107.332321,307.037964 124.817459,301.607056 
	C154.131912,292.501892 183.393387,283.226349 212.699417,274.093933 
	C230.229126,268.631256 247.801193,263.304565 266.047455,257.474579 
M129.928024,91.440811 
	C137.632736,97.137360 145.233627,102.985802 153.138397,108.389702 
	C154.552612,109.356483 157.502380,109.112518 159.258118,108.333900 
	C163.205917,106.583183 166.934860,104.280846 170.596237,101.956291 
	C175.773392,98.669418 180.809143,95.159828 186.487610,91.355316 
	C173.321304,81.871384 160.683868,72.768410 148.143616,63.735439 
	C138.042160,70.179733 128.401291,76.330193 117.789803,83.099861 
	C122.151314,86.135445 125.697311,88.603432 129.928024,91.440811 
M173.539383,123.994469 
	C167.857193,125.808968 162.175003,127.623466 156.485168,129.440414 
	C155.304153,144.912079 154.123917,160.373688 152.898224,176.430832 
	C164.065079,173.022903 174.347931,170.039780 184.484344,166.622269 
	C185.985458,166.116196 187.601639,163.643509 187.781723,161.934906 
	C188.483551,155.276611 188.558868,148.555038 188.999680,141.865738 
	C189.486206,134.482498 190.118057,127.108826 190.748474,118.928368 
	C184.765274,120.742210 179.559158,122.320480 173.539383,123.994469 
M206.620575,77.988441 
	C207.272766,77.911697 208.060623,78.045898 208.556931,77.726746 
	C216.747437,72.459946 224.816010,66.997581 233.106277,61.894859 
	C236.315994,59.919262 237.178711,59.177467 233.388992,56.575787 
	C222.936386,49.399971 212.906891,41.610069 202.532196,34.316010 
	C201.001343,33.239716 197.945740,32.559189 196.547104,33.359161 
	C188.253830,38.102638 180.201675,43.275219 172.156036,48.439991 
	C169.470337,50.164036 169.429642,52.088020 172.250732,54.071892 
	C183.487244,61.973751 194.653595,69.975418 206.620575,77.988441 
M133.008423,146.040741 
	C133.008423,143.047501 133.008423,140.054276 133.008423,136.729401 
	C122.082870,140.035446 112.116859,142.916931 102.277168,146.179382 
	C100.869377,146.646149 99.319244,148.863007 99.128113,150.427841 
	C98.443016,156.037018 98.374550,161.718567 97.957207,167.364212 
	C97.523354,173.233139 96.973999,179.093872 96.438194,184.954803 
	C96.168121,187.908981 95.816246,190.855682 95.446602,194.318863 
	C106.382271,190.931519 115.974289,187.970505 125.558495,184.984482 
	C127.943893,184.241318 129.911179,183.527466 130.127823,180.180771 
	C130.847946,169.056015 131.999695,157.959183 133.008423,146.040741 
M227.725067,107.076324 
	C223.267151,108.556648 218.809235,110.036964 214.148651,111.584587 
	C212.803909,125.303780 211.327240,139.171585 210.317413,153.073318 
	C210.241302,154.121353 208.751633,159.209579 213.671768,157.719742 
	C222.973663,154.903046 232.258972,152.018173 241.451950,148.871689 
	C242.642593,148.464157 243.743515,146.432755 244.019974,144.987854 
	C244.680359,141.536438 244.866943,137.989792 245.167633,134.474991 
	C246.093063,123.657318 246.982285,112.836555 247.961884,101.102859 
	C241.002579,103.215858 234.772385,105.107491 227.725067,107.076324 
M133.045349,121.521950 
	C122.387527,113.690849 111.786415,105.779831 101.002182,98.126854 
	C99.608315,97.137703 96.724068,96.585136 95.451637,97.354424 
	C86.156143,102.974304 77.096153,108.983734 67.930244,114.890549 
	C68.504631,115.970596 68.739182,117.148766 69.446701,117.626595 
	C75.695892,121.846977 82.522835,125.364655 88.212387,130.222229 
	C95.316132,136.287186 102.023956,139.983368 111.368828,135.087112 
	C118.481644,131.360336 126.072250,128.551056 133.358765,125.138184 
	C133.863724,124.901657 133.606354,123.037560 133.045349,121.521950 
M53.045948,152.046066 
	C45.170021,155.148743 42.759075,158.555450 43.496964,166.891281 
	C43.994572,172.512695 47.629276,178.406540 57.405773,178.769165 
	C62.114326,178.943802 68.411018,173.692566 69.464287,168.500992 
	C71.549797,158.221573 65.681198,151.998352 53.045948,152.046066 
z"/>
<path fill="#000000" opacity="0.000000" stroke="none" 
	d="
M216.531342,1.000000 
	C216.987213,1.473371 217.153381,2.247420 216.935913,2.376851 
	C207.525146,7.977616 197.950272,13.313288 188.669144,19.118879 
	C173.467758,28.627748 158.449310,38.429329 143.363876,48.123276 
	C132.138077,55.337002 120.963020,62.630260 109.703049,69.790092 
	C94.385078,79.530266 78.975204,89.125992 63.666103,98.879982 
	C51.374123,106.711655 39.150074,114.650795 26.941986,122.612946 
	C20.778387,126.632843 14.388046,130.404221 8.697248,135.023468 
	C2.356293,140.170456 1.990412,146.765503 4.620973,154.568619 
	C9.907675,170.250732 14.089475,186.301346 19.007902,202.112595 
	C24.735647,220.525574 30.915474,238.798111 36.620941,257.217773 
	C42.914284,277.535339 48.784206,297.983978 55.063290,318.306122 
	C57.386074,325.823761 61.192791,332.255219 70.240593,333.151733 
	C70.756516,333.202881 71.200439,333.980591 71.338936,334.710083 
	C47.683140,335.000000 24.366282,335.000000 1.024711,335.000000 
	C1.024711,223.761749 1.024711,112.523491 1.024711,1.000000 
	C72.687309,1.000000 144.375000,1.000000 216.531342,1.000000 
z"/>
<path fill="#000000" opacity="0.000000" stroke="none" 
	d="
M73.468658,335.000000 
	C73.140999,334.470398 73.165253,333.548920 73.439690,333.467133 
	C91.124680,328.198273 108.874062,323.142090 126.523590,317.758392 
	C156.488342,308.618134 186.402557,299.311493 216.316925,290.007019 
	C243.598755,281.521393 270.826935,272.862183 298.138611,264.474335 
	C304.219635,262.606750 310.020386,260.744049 314.214386,255.501999 
	C318.283356,250.416290 318.077881,244.719757 316.490234,239.162079 
	C312.921661,226.670227 308.949799,214.289856 304.956482,201.924057 
	C300.743530,188.878296 296.170013,175.947983 292.036896,162.877777 
	C289.712250,155.526566 288.101624,147.952011 285.891357,140.561218 
	C284.696747,136.566574 282.634735,132.830048 281.457520,128.831772 
	C278.472473,118.693344 275.692200,108.492599 272.966644,98.280312 
	C269.640991,85.819328 259.863434,79.810287 247.253952,84.272484 
	C237.309631,87.791557 227.167099,90.752304 217.095581,93.906708 
	C216.347031,94.141159 215.461227,93.937485 214.071823,92.998596 
	C217.060776,90.991890 220.011734,88.925644 223.045731,86.989517 
	C232.561935,80.916817 242.066635,74.824219 251.656830,68.869843 
	C261.243317,62.917782 260.211151,52.931648 255.667023,44.387123 
	C252.690552,38.790363 249.324051,33.385365 245.879776,28.057701 
	C242.778671,23.260834 239.287476,18.717850 236.063812,13.997675 
	C234.823502,12.181579 234.259277,9.679784 232.663132,8.377908 
	C229.478516,5.780421 225.793472,3.796439 222.657562,1.279531 
	C254.979279,1.000000 286.958557,1.000000 318.968933,1.000000 
	C318.968933,112.240524 318.968933,223.481049 318.968933,335.000000 
	C237.312653,335.000000 155.624985,335.000000 73.468658,335.000000 
z"/>
<path fill="#000000" opacity=".000000" stroke="none" 
	d="
M220.750000,1.000000 
	C221.001694,1.444188 221.003387,1.888376 221.005066,2.332566 
	C220.446259,2.065241 219.887436,1.797913 219.664307,1.265293 
	C220.000000,1.000000 220.500000,1.000000 220.750000,1.000000 
z"/>
<path fill="#000000" opacity="0.000000" stroke="none" 
	d="
M265.700836,257.695679 
	C247.801193,263.304565 230.229126,268.631256 212.699417,274.093933 
	C183.393387,283.226349 154.131912,292.501892 124.817459,301.607056 
	C107.332321,307.037964 89.781937,312.258820 71.449036,317.820404 
	C61.347179,284.926849 51.249905,252.048218 40.985683,218.625961 
	C117.852455,194.784393 194.275299,171.080521 271.180847,147.226929 
	C281.335938,179.940918 291.491821,212.657562 301.974060,246.425400 
	C290.057465,250.090317 278.052460,253.782440 265.700836,257.695679 
z"/>
<path fill="#000000" opacity="0.000000" stroke="none" 
	d="
M129.585663,91.256119 
	C125.697311,88.603432 122.151314,86.135445 117.789803,83.099861 
	C128.401291,76.330193 138.042160,70.179733 148.143616,63.735439 
	C160.683868,72.768410 173.321304,81.871384 186.487610,91.355316 
	C180.809143,95.159828 175.773392,98.669418 170.596237,101.956291 
	C166.934860,104.280846 163.205917,106.583183 159.258118,108.333900 
	C157.502380,109.112518 154.552612,109.356483 153.138397,108.389702 
	C145.233627,102.985802 137.632736,97.137360 129.585663,91.256119 
z"/>
<path fill="#000000" opacity="0.000000" stroke="none" 
	d="
M173.946213,123.946609 
	C179.559158,122.320480 184.765274,120.742210 190.748474,118.928368 
	C190.118057,127.108826 189.486206,134.482498 188.999680,141.865738 
	C188.558868,148.555038 188.483551,155.276611 187.781723,161.934906 
	C187.601639,163.643509 185.985458,166.116196 184.484344,166.622269 
	C174.347931,170.039780 164.065079,173.022903 152.898224,176.430832 
	C154.123917,160.373688 155.304153,144.912079 156.485168,129.440414 
	C162.175003,127.623466 167.857193,125.808968 173.946213,123.946609 
z"/>
<path fill="#000000" opacity="0.000000" stroke="none" 
	d="
M206.233246,77.964287 
	C194.653595,69.975418 183.487244,61.973751 172.250732,54.071892 
	C169.429642,52.088020 169.470337,50.164036 172.156036,48.439991 
	C180.201675,43.275219 188.253830,38.102638 196.547104,33.359161 
	C197.945740,32.559189 201.001343,33.239716 202.532196,34.316010 
	C212.906891,41.610069 222.936386,49.399971 233.388992,56.575787 
	C237.178711,59.177467 236.315994,59.919262 233.106277,61.894859 
	C224.816010,66.997581 216.747437,72.459946 208.556931,77.726746 
	C208.060623,78.045898 207.272766,77.911697 206.233246,77.964287 
z"/>
<path fill="#000000" opacity="0.000000" stroke="none" 
	d="
M132.997192,146.446198 
	C131.999695,157.959183 130.847946,169.056015 130.127823,180.180771 
	C129.911179,183.527466 127.943893,184.241318 125.558495,184.984482 
	C115.974289,187.970505 106.382271,190.931519 95.446602,194.318863 
	C95.816246,190.855682 96.168121,187.908981 96.438194,184.954803 
	C96.973999,179.093872 97.523354,173.233139 97.957207,167.364212 
	C98.374550,161.718567 98.443016,156.037018 99.128113,150.427841 
	C99.319244,148.863007 100.869377,146.646149 102.277168,146.179382 
	C112.116859,142.916931 122.082870,140.035446 133.008423,136.729401 
	C133.008423,140.054276 133.008423,143.047501 132.997192,146.446198 
z"/>
<path fill="#000000" opacity="0.000000" stroke="none" 
	d="
M228.133621,107.037720 
	C234.772385,105.107491 241.002579,103.215858 247.961884,101.102859 
	C246.982285,112.836555 246.093063,123.657318 245.167633,134.474991 
	C244.866943,137.989792 244.680359,141.536438 244.019974,144.987854 
	C243.743515,146.432755 242.642593,148.464157 241.451950,148.871689 
	C232.258972,152.018173 222.973663,154.903046 213.671768,157.719742 
	C208.751633,159.209579 210.241302,154.121353 210.317413,153.073318 
	C211.327240,139.171585 212.803909,125.303780 214.148651,111.584587 
	C218.809235,110.036964 223.267151,108.556648 228.133621,107.037720 
z"/>
<path fill="#000000" opacity="0.000000" stroke="none" 
	d="
M133.374420,121.726151 
	C133.606354,123.037560 133.863724,124.901657 133.358765,125.138184 
	C126.072250,128.551056 118.481644,131.360336 111.368828,135.087112 
	C102.023956,139.983368 95.316132,136.287186 88.212387,130.222229 
	C82.522835,125.364655 75.695892,121.846977 69.446701,117.626595 
	C68.739182,117.148766 68.504631,115.970596 67.930244,114.890549 
	C77.096153,108.983734 86.156143,102.974304 95.451637,97.354424 
	C96.724068,96.585136 99.608315,97.137703 101.002182,98.126854 
	C111.786415,105.779831 122.387527,113.690849 133.374420,121.726151 
z"/>
<path fill="#000000" opacity="0.000000" stroke="none" 
	d="
M53.478573,152.027084 
	C65.681198,151.998352 71.549797,158.221573 69.464287,168.500992 
	C68.411018,173.692566 62.114326,178.943802 57.405773,178.769165 
	C47.629276,178.406540 43.994572,172.512695 43.496964,166.891281 
	C42.759075,158.555450 45.170021,155.148743 53.478573,152.027084 
z"/>
</svg>